<svg xmlns="http://www.w3.org/2000/svg" width="168.613" height="105.975"><path d="M2.826.635H16.9q8.224 0 12.211 2.442a8.279 8.279 0 013.988 7.6 9.614 9.614 0 01-1.739 5.8 7.755 7.755 0 01-4.577 3.089v.276a9.39 9.39 0 015.436 3.312 9.995 9.995 0 011.683 6.016 10.3 10.3 0 01-4.126 8.651q-4.126 3.16-11.245 3.16H2.826zm10.9 15.482h3.284a5.935 5.935 0 003.629-.967 3.366 3.366 0 001.283-2.87q0-3.394-5.133-3.394h-3.062zm0 7.975v8.472h3.836q5.105 0 5.105-4.305a3.7 3.7 0 00-1.366-3.091 6.288 6.288 0 00-3.96-1.076zm64.935-3.34q0 10.183-4.995 15.482t-14.626 5.3q-9.493 0-14.557-5.326t-5.064-15.506q0-10.073 5.036-15.385T59.095.002q9.631 0 14.6 5.271t4.966 15.479zm-27.762 0q0 11.7 8.141 11.7a7 7 0 006.14-2.842q2-2.842 2-8.858 0-6.044-2.028-8.927a6.92 6.92 0 00-6.057-2.884q-8.196 0-8.196 11.811zm72.8 0q0 10.183-4.995 15.482t-14.626 5.3q-9.493 0-14.557-5.326t-5.065-15.506q0-10.073 5.036-15.385t14.64-5.312q9.631 0 14.6 5.271t4.966 15.476zm-27.762 0q0 11.7 8.141 11.7a7 7 0 006.14-2.842q2-2.842 2-8.858 0-6.044-2.028-8.927a6.92 6.92 0 00-6.057-2.884q-8.197 0-8.197 11.811zm69.515 20.228h-12.309l-7.975-15.426-3.229 1.932v13.495h-10.956V.635h10.956v17.523a47.826 47.826 0 013.339-5.156L153.75.639h11.922L152.95 18.71zM17.579 105.975L9.328 76.917H9.08q.58 7.423.58 11.535v17.523H0V65.63h14.516l8.417 28.645h.224l8.248-28.645h14.543v40.345H35.93V88.286q0-1.38.041-3.063t.373-8.251h-.248l-8.141 29zm61.816 0l-1.987-7.561H64.299l-2.042 7.561H50.28l13.164-40.511h14.543l13.329 40.511zm-4.25-16.5l-1.739-6.625q-.607-2.208-1.476-5.713t-1.146-5.022q-.248 1.407-.98 4.636t-3.242 12.722zm31.432 1.821v14.679h-10.9V65.63h13.219q16.447 0 16.447 11.922 0 7.009-6.844 10.845l11.758 17.578h-12.366l-8.555-14.681zm0-8.2h2.042q5.712 0 5.712-5.05 0-4.167-5.6-4.167h-2.154zm61.816 22.877h-12.308l-7.975-15.426-3.229 1.932v13.496h-10.956V65.63h10.956v17.523a47.826 47.826 0 013.339-5.161l8.472-12.363h11.922l-12.723 18.076z" fill="#f6ce5d"/></svg>