<svg xmlns="http://www.w3.org/2000/svg" width="402.395" height="49.799"><path d="M0 .761h16.875q9.861 0 14.642 2.928t4.782 9.113a11.528 11.528 0 01-2.085 6.949 9.3 9.3 0 01-5.493 3.706v.331a11.259 11.259 0 016.519 3.971 11.984 11.984 0 012.017 7.216 12.356 12.356 0 01-4.947 10.373q-4.947 3.789-13.484 3.789H0zm13.07 18.563h3.938a7.116 7.116 0 004.349-1.158 4.035 4.035 0 001.541-3.441q0-4.07-6.155-4.07H13.07zm0 9.563v10.158h4.6q6.121 0 6.121-5.162a4.44 4.44 0 00-1.634-3.706 7.539 7.539 0 00-4.748-1.29zm77.858-4q0 12.21-5.989 18.563t-17.537 6.352q-11.383 0-17.454-6.386t-6.072-18.6q0-12.077 6.039-18.447T67.468.002q11.548 0 17.5 6.32t5.96 18.561zm-33.287 0q0 14.03 9.761 14.03 4.963 0 7.362-3.408t2.4-10.622q0-7.246-2.432-10.7a8.3 8.3 0 00-7.263-3.458q-9.828-.008-9.828 14.154zm87.289 0q0 12.21-5.989 18.563t-17.538 6.352q-11.383 0-17.454-6.386t-6.072-18.6q0-12.077 6.039-18.447t17.554-6.37q11.548 0 17.5 6.32t5.959 18.564zm-33.287 0q0 14.03 9.761 14.03 4.963 0 7.362-3.408t2.4-10.622q0-7.246-2.432-10.7a8.3 8.3 0 00-7.263-3.458q-9.829-.008-9.829 14.154zm83.351 24.254h-14.759l-9.563-18.5-3.871 2.316v16.18h-13.136V.761h13.136v21.012a57.343 57.343 0 014-6.188L180.959.761h14.298l-15.253 21.673zm26.306 0l-9.895-34.847h-.3q.695 8.9.695 13.831v21.012h-11.579V.761h17.4l10.092 34.346h.265L237.872.761h17.438v48.376h-12.007v-21.21q0-1.654.05-3.673t.447-9.894h-.3l-9.761 34.776zm74.119 0l-2.382-9.066h-15.719l-2.449 9.066h-14.36L276.292.566h17.438l15.982 48.575zm-5.1-19.787l-2.085-7.941q-.728-2.647-1.77-6.849t-1.373-6.022q-.3 1.688-1.175 5.559t-3.888 15.254zm37.688 2.184v17.6h-13.07V.761h15.85q19.721 0 19.721 14.294 0 8.4-8.206 13l14.1 21.078h-14.825l-10.258-17.6zm0-9.827h2.45q6.849 0 6.849-6.055 0-5-6.717-5h-2.581zm74.119 27.431h-14.754l-9.563-18.5-3.871 2.316v16.18h-13.136V.761h13.136v21.012a57.345 57.345 0 014-6.188L388.096.761h14.294l-15.249 21.673z" fill="#f6ce5d"/></svg>