<svg xmlns="http://www.w3.org/2000/svg" width="168.613" height="105.975" viewBox="0 0 168.613 105.975"><g transform="translate(-321.543 -294.498)"><path d="M1.543-13.867H15.617q8.224,0,12.211,2.442a8.279,8.279,0,0,1,3.988,7.6,9.614,9.614,0,0,1-1.739,5.8A7.755,7.755,0,0,1,25.5,5.064V5.34a9.39,9.39,0,0,1,5.436,3.312,9.995,9.995,0,0,1,1.683,6.016,10.3,10.3,0,0,1-4.126,8.651q-4.126,3.16-11.245,3.16H1.543Zm10.9,15.482h3.284A5.935,5.935,0,0,0,19.356.648a3.366,3.366,0,0,0,1.283-2.87q0-3.394-5.133-3.394H12.444Zm0,7.975v8.472h3.836q5.105,0,5.105-4.305a3.7,3.7,0,0,0-1.366-3.091,6.288,6.288,0,0,0-3.96-1.076ZM77.378,6.25q0,10.183-4.995,15.482t-14.626,5.3q-9.493,0-14.557-5.326T38.136,6.2q0-10.073,5.036-15.385T57.812-14.5q9.631,0,14.6,5.271T77.378,6.25Zm-27.762,0q0,11.7,8.141,11.7a7,7,0,0,0,6.14-2.842q2-2.842,2-8.858,0-6.044-2.028-8.927a6.92,6.92,0,0,0-6.057-2.884Q49.616-5.561,49.616,6.25Zm72.8,0q0,10.183-4.995,15.482t-14.626,5.3q-9.493,0-14.557-5.326T83.173,6.2q0-10.073,5.036-15.385t14.64-5.312q9.631,0,14.6,5.271T122.415,6.25Zm-27.762,0q0,11.7,8.141,11.7a7,7,0,0,0,6.14-2.842q2-2.842,2-8.858,0-6.044-2.028-8.927a6.92,6.92,0,0,0-6.057-2.884Q94.653-5.561,94.653,6.25Zm69.515,20.228H151.86l-7.975-15.426-3.229,1.932V26.479H129.7V-13.867h10.956V3.656A47.826,47.826,0,0,1,143.995-1.5l8.472-12.363h11.922L151.667,4.208Z" transform="translate(322.826 309)" fill="#f6ce5d"/><path d="M19.122,26.175,10.871-2.883h-.248q.58,7.423.58,11.535V26.175H1.543V-14.17H16.059l8.417,28.645H24.7L32.948-14.17H47.491V26.175H37.473V8.486q0-1.38.041-3.063t.373-8.251h-.248l-8.141,29Zm61.816,0-1.987-7.561H65.842L63.8,26.175H51.823L64.987-14.336H79.53L92.859,26.175Zm-4.25-16.5L74.949,3.05Q74.342.842,73.473-2.663T72.327-7.685q-.248,1.407-.98,4.636T68.105,9.673Zm31.432,1.821V26.175h-10.9V-14.17h13.219q16.447,0,16.447,11.922,0,7.009-6.844,10.845L131.8,26.175H119.434l-8.555-14.681Zm0-8.2h2.042q5.712,0,5.712-5.05,0-4.167-5.6-4.167H108.12Zm61.816,22.877H157.628l-7.975-15.426-3.229,1.932V26.175H135.468V-14.17h10.956V3.353a47.826,47.826,0,0,1,3.339-5.161l8.472-12.363h11.922L157.434,3.905Z" transform="translate(320 374.298)" fill="#f6ce5d"/></g></svg>