<svg xmlns="http://www.w3.org/2000/svg" width="402.395" height="49.799" viewBox="0 0 402.395 49.799"><path d="M1.543-13.741H18.418q9.861,0,14.642,2.928T37.842-1.7a11.528,11.528,0,0,1-2.085,6.949,9.3,9.3,0,0,1-5.493,3.706v.331a11.259,11.259,0,0,1,6.519,3.971A11.984,11.984,0,0,1,38.8,20.473a12.356,12.356,0,0,1-4.947,10.373q-4.947,3.789-13.484,3.789H1.543ZM14.613,4.822h3.938A7.116,7.116,0,0,0,22.9,3.664,4.035,4.035,0,0,0,24.441.223q0-4.07-6.155-4.07H14.613Zm0,9.563V24.543h4.6q6.121,0,6.121-5.162A4.44,4.44,0,0,0,23.7,15.675a7.539,7.539,0,0,0-4.748-1.29Zm77.858-4q0,12.21-5.989,18.563T68.945,35.3q-11.383,0-17.454-6.386t-6.072-18.6q0-12.077,6.039-18.447T69.011-14.5q11.548,0,17.5,6.32T92.471,10.381Zm-33.287,0q0,14.03,9.761,14.03,4.963,0,7.362-3.408t2.4-10.622q0-7.246-2.432-10.7a8.3,8.3,0,0,0-7.263-3.458Q59.184-3.781,59.184,10.381Zm87.289,0q0,12.21-5.989,18.563T122.946,35.3q-11.383,0-17.454-6.386t-6.072-18.6q0-12.077,6.039-18.447t17.554-6.37q11.548,0,17.5,6.32T146.472,10.381Zm-33.287,0q0,14.03,9.761,14.03,4.963,0,7.362-3.408t2.4-10.622q0-7.246-2.432-10.7a8.3,8.3,0,0,0-7.263-3.458Q113.185-3.781,113.185,10.381Zm83.351,24.254H181.778l-9.563-18.5-3.871,2.316v16.18H155.208V-13.741h13.136V7.271a57.343,57.343,0,0,1,4-6.188l10.158-14.824H196.8L181.547,7.932Zm26.306,0L212.948-.208h-.3q.695,8.9.695,13.831V34.635H201.764V-13.741h17.4l10.092,34.346h.265l9.894-34.346h17.438V34.635H244.846V13.425q0-1.654.05-3.673t.447-9.894h-.3l-9.761,34.776Zm74.119,0-2.382-9.066H278.861l-2.449,9.066H262.052l15.783-48.575h17.438l15.982,48.575Zm-5.1-19.787-2.085-7.941q-.728-2.647-1.77-6.849t-1.373-6.022q-.3,1.688-1.175,5.559t-3.888,15.254Zm37.688,2.184v17.6h-13.07V-13.741h15.85q19.721,0,19.721,14.294,0,8.4-8.206,13l14.1,21.078H343.12l-10.258-17.6Zm0-9.827H332q6.849,0,6.849-6.055,0-5-6.717-5h-2.581Zm74.119,27.431H388.915l-9.563-18.5-3.871,2.316v16.18H362.345V-13.741h13.136V7.271a57.345,57.345,0,0,1,4-6.188l10.158-14.824h14.294L388.684,7.932Z" transform="translate(-1.543 14.502)" fill="#f6ce5d"/></svg>