<svg xmlns="http://www.w3.org/2000/svg" width="188.34" height="100.137" viewBox="0 0 188.34 100.137"><g transform="translate(-338.4 418.28)"><path d="M31.234,5.073a10.883,10.883,0,0,1,5.213,3.632,9.53,9.53,0,0,1,1.885,5.961,8.949,8.949,0,0,1-4.1,7.874q-4.1,2.773-11.867,2.773H1.4V-13.5H21.252q7.431,0,11.312,2.745a8.616,8.616,0,0,1,3.882,7.4,9.222,9.222,0,0,1-1.359,4.963A9.5,9.5,0,0,1,31.234,5.073ZM12.269-5.574V1.912H19.81q5.545,0,5.545-3.771,0-3.715-5.545-3.715Zm9.205,22.957q5.767,0,5.767-3.937T21.474,9.509H12.269v7.874ZM67.618,26.09a23.217,23.217,0,0,1-11.063-2.606,19.582,19.582,0,0,1-7.708-7.209,19.553,19.553,0,0,1-2.8-10.37,19.553,19.553,0,0,1,2.8-10.37,19.582,19.582,0,0,1,7.708-7.209A23.217,23.217,0,0,1,67.618-14.28a23.217,23.217,0,0,1,11.063,2.606,19.582,19.582,0,0,1,7.708,7.209,19.553,19.553,0,0,1,2.8,10.37,19.553,19.553,0,0,1-2.8,10.37,19.582,19.582,0,0,1-7.708,7.209A23.217,23.217,0,0,1,67.618,26.09Zm0-9.094a10.4,10.4,0,0,0,5.323-1.386A9.972,9.972,0,0,0,76.712,11.7,11.837,11.837,0,0,0,78.1,5.9,11.837,11.837,0,0,0,76.712.11,9.972,9.972,0,0,0,72.942-3.8a10.914,10.914,0,0,0-10.647,0A9.972,9.972,0,0,0,58.524.11,11.837,11.837,0,0,0,57.138,5.9,11.837,11.837,0,0,0,58.524,11.7a9.972,9.972,0,0,0,3.771,3.909A10.4,10.4,0,0,0,67.618,17Zm50.913,9.094a23.217,23.217,0,0,1-11.063-2.606,19.582,19.582,0,0,1-7.708-7.209A19.553,19.553,0,0,1,96.96,5.9a19.553,19.553,0,0,1,2.8-10.37,19.582,19.582,0,0,1,7.708-7.209,24.782,24.782,0,0,1,22.126,0A19.582,19.582,0,0,1,137.3-4.465,19.553,19.553,0,0,1,140.1,5.9a19.553,19.553,0,0,1-2.8,10.37,19.582,19.582,0,0,1-7.708,7.209A23.217,23.217,0,0,1,118.531,26.09Zm0-9.094a10.4,10.4,0,0,0,5.323-1.386,9.972,9.972,0,0,0,3.771-3.909A11.837,11.837,0,0,0,129.012,5.9,11.837,11.837,0,0,0,127.626.11,9.972,9.972,0,0,0,123.855-3.8a10.914,10.914,0,0,0-10.647,0A9.972,9.972,0,0,0,109.437.11,11.837,11.837,0,0,0,108.051,5.9a11.837,11.837,0,0,0,1.386,5.795,9.972,9.972,0,0,0,3.771,3.909A10.4,10.4,0,0,0,118.531,17Zm46.311-5.767-4.1,4.381v9.7H149.87V-13.5h10.869V2.633L175.766-13.5h12.089L172,3.687l16.691,21.627H175.932Z" transform="translate(338 -404)" fill="#f6ce5d"/><path d="M36.446,24.817,36.335,4.244,26.354,20.991h-4.88L11.548,4.8V24.817H1.4V-14h9.039L24.08,8.4,37.389-14h9.039l.111,38.817Zm47.863-7.542H67.9l-3.05,7.542h-11.2L70.779-14H81.592l17.19,38.817H87.359Zm-3.216-8.1L76.1-3.242,71.112,9.179ZM122.857,14.5h-5.989V24.817h-10.98V-14h17.745a22.139,22.139,0,0,1,9.15,1.747,13.569,13.569,0,0,1,5.989,4.991A13.683,13.683,0,0,1,140.879.362,13.52,13.52,0,0,1,138.91,7.71a13.315,13.315,0,0,1-5.628,4.908l8.373,12.2H129.9ZM129.788.362a5.291,5.291,0,0,0-1.719-4.214,7.572,7.572,0,0,0-5.1-1.5h-6.1V6.018h6.1a7.671,7.671,0,0,0,5.1-1.47A5.206,5.206,0,0,0,129.788.362ZM165.9,10.732l-4.1,4.381v9.7H150.923V-14h10.869V2.137L176.82-14h12.089L173.049,3.19,189.74,24.817H176.986Z" transform="translate(337 -342.96)" fill="#f6ce5d"/></g></svg>